<?xml version="1.0" standalone="no"?>
<!DOCTYPE svg PUBLIC "-//W3C//DTD SVG 1.1//EN"
  "http://www.w3.org/Graphics/SVG/1.1/DTD/svg11.dtd">
<svg width="600" height="600" style="stroke-linecap: round; stroke-linejoin: round; stroke-width: 12px;" version="1.1" xmlns="http://www.w3.org/2000/svg" xmlns:xlink= "http://www.w3.org/1999/xlink"><path d="M300,26.099999999999998L544.8,168.9L544.8,429L300,571.8L55.199999999999996,429L55.199999999999996,168.9L300,26.099999999999998" stroke="black" fill="rgb(123, 123, 123)" style="stroke-width: 36px;"></path><path d="M300,66.89999999999999L361.2,102.6L361.2,439.2L327.19800000000004,418.8L327.19800000000004,372.9L300,359.28599999999994L272.796,372.9L272.796,418.8L238.79999999999998,439.2L238.79999999999998,102.6L300,66.89999999999999" stroke="black" fill="black"></path><path d="M381.59999999999997,357.59999999999997L442.8,393.3L442.8,487.65L381.59999999999997,451.95L381.59999999999997,357.59999999999997" stroke="black" fill="black"></path><path d="M218.4,357.59999999999997L157.2,393.3L157.2,487.65L218.4,451.95L218.4,357.59999999999997" stroke="black" fill="black"></path><path d="M300,148.5L330.59999999999997,166.35L330.59999999999997,199.5L300,217.35L269.4,199.5L269.4,166.35L300,148.5" stroke="white" fill="white"></path></svg>