<?xml version="1.0" standalone="no"?>
<!DOCTYPE svg PUBLIC "-//W3C//DTD SVG 1.1//EN"
  "http://www.w3.org/Graphics/SVG/1.1/DTD/svg11.dtd">
<svg width="1000" height="1000" version="1.1" xmlns="http://www.w3.org/2000/svg" xmlns:xlink="http://www.w3.org/1999/xlink" style="stroke-linecap: round; stroke-linejoin: round; stroke-width: 20px;"><path d="M500,43.5L908,281.5L908,715L500,953L92,715L92,281.5L500,43.5" stroke="rgb(123, 123, 123)" fill="rgb(123, 123, 123)" style="stroke-width: 30px;"></path><path d="M500,87.5L602,147L602,527.5L500,471L398,527.5L398,147L500,87.5" stroke="black" fill="black"></path><path d="M500,509L602,565.5L602,708L545.33,674L545.33,597.5L500,574.81L454.66,597.5L454.66,674L398,708L398,565.5L500,509" stroke="rgb(112, 189, 68)" fill="rgb(112, 189, 68)"></path><path d="M636,554L738,613.5L738,770.75L636,711.25L636,554" stroke="black" fill="black"></path><path d="M364,554L262,613.5L262,770.75L364,711.25L364,554" stroke="black" fill="black"></path><path d="M500,227.5L551,257.25L551,312.5L500,342.25L449,312.5L449,257.25L500,227.5" stroke="rgb(112, 189, 68)" fill="rgb(112, 189, 68)"></path></svg>